<svg width="3200" height="800" viewBox="0 0 3200 800" fill="none" xmlns="http://www.w3.org/2000/svg">
<rect width="3200" height="800" fill="white"/>
<rect width="800" height="800" fill="white"/>
<rect x="95" y="95" width="150" height="150" rx="45" stroke="black" stroke-width="50"/>
<rect x="335" y="95" width="150" height="150" rx="45" stroke="black" stroke-width="50"/>
<rect x="575" y="95" width="150" height="150" rx="45" stroke="black" stroke-width="50"/>
<rect x="95" y="335" width="150" height="150" rx="45" stroke="black" stroke-width="50"/>
<rect x="335" y="335" width="150" height="150" rx="45" stroke="black" stroke-width="50"/>
<rect x="95" y="575" width="150" height="150" rx="45" stroke="black" stroke-width="50"/>
<path d="M2958.87 431.077L2919.92 471.685V545.028H2853.21V254.972H2919.92V390.47L3048.37 254.972H3122.96L3002.79 384.254L3130 545.028H3051.69L2958.87 431.077Z" fill="black"/>
<path d="M2644.06 550C2613.95 550 2586.74 543.508 2562.43 530.525C2538.4 517.541 2519.47 499.724 2505.66 477.072C2492.12 454.144 2485.36 428.453 2485.36 400C2485.36 371.547 2492.12 345.994 2505.66 323.343C2519.47 300.414 2538.4 282.459 2562.43 269.475C2586.74 256.492 2613.95 250 2644.06 250C2674.17 250 2701.24 256.492 2725.27 269.475C2749.31 282.459 2768.23 300.414 2782.04 323.343C2795.85 345.994 2802.76 371.547 2802.76 400C2802.76 428.453 2795.85 454.144 2782.04 477.072C2768.23 499.724 2749.31 517.541 2725.27 530.525C2701.24 543.508 2674.17 550 2644.06 550ZM2644.06 492.818C2661.19 492.818 2676.65 488.95 2690.47 481.215C2704.28 473.204 2715.05 462.155 2722.79 448.066C2730.8 433.978 2734.8 417.956 2734.8 400C2734.8 382.044 2730.8 366.022 2722.79 351.934C2715.05 337.845 2704.28 326.934 2690.47 319.199C2676.65 311.188 2661.19 307.182 2644.06 307.182C2626.93 307.182 2611.46 311.188 2597.65 319.199C2583.84 326.934 2572.93 337.845 2564.91 351.934C2557.18 366.022 2553.31 382.044 2553.31 400C2553.31 417.956 2557.18 433.978 2564.91 448.066C2572.93 462.155 2583.84 473.204 2597.65 481.215C2611.46 488.95 2626.93 492.818 2644.06 492.818Z" fill="black"/>
<path d="M2294.44 550C2264.33 550 2237.12 543.508 2212.81 530.525C2188.77 517.541 2169.85 499.724 2156.04 477.072C2142.5 454.144 2135.74 428.453 2135.74 400C2135.74 371.547 2142.5 345.994 2156.04 323.343C2169.85 300.414 2188.77 282.459 2212.81 269.475C2237.12 256.492 2264.33 250 2294.44 250C2324.55 250 2351.62 256.492 2375.65 269.475C2399.69 282.459 2418.61 300.414 2432.42 323.343C2446.23 345.994 2453.14 371.547 2453.14 400C2453.14 428.453 2446.23 454.144 2432.42 477.072C2418.61 499.724 2399.69 517.541 2375.65 530.525C2351.62 543.508 2324.55 550 2294.44 550ZM2294.44 492.818C2311.57 492.818 2327.03 488.95 2340.85 481.215C2354.66 473.204 2365.43 462.155 2373.17 448.066C2381.18 433.978 2385.18 417.956 2385.18 400C2385.18 382.044 2381.18 366.022 2373.17 351.934C2365.43 337.845 2354.66 326.934 2340.85 319.199C2327.03 311.188 2311.57 307.182 2294.44 307.182C2277.31 307.182 2261.84 311.188 2248.03 319.199C2234.22 326.934 2223.31 337.845 2215.29 351.934C2207.56 366.022 2203.69 382.044 2203.69 400C2203.69 417.956 2207.56 433.978 2215.29 448.066C2223.31 462.155 2234.22 473.204 2248.03 481.215C2261.84 488.95 2277.31 492.818 2294.44 492.818Z" fill="black"/>
<path d="M2050.11 394.199C2066.68 399.447 2079.67 408.287 2089.06 420.718C2098.45 432.873 2103.15 447.928 2103.15 465.884C2103.15 491.298 2093.2 510.912 2073.31 524.724C2053.7 538.26 2024.97 545.028 1987.13 545.028H1837.13V254.972H1978.84C2014.2 254.972 2041.27 261.74 2060.05 275.276C2079.11 288.812 2088.64 307.182 2088.64 330.387C2088.64 344.475 2085.19 357.044 2078.29 368.094C2071.66 379.144 2062.26 387.845 2050.11 394.199ZM1903.84 305.525V373.895H1970.55C1987.13 373.895 1999.69 370.994 2008.26 365.193C2016.82 359.392 2021.1 350.829 2021.1 339.503C2021.1 328.177 2016.82 319.751 2008.26 314.226C1999.69 308.425 1987.13 305.525 1970.55 305.525H1903.84ZM1982.15 494.475C1999.83 494.475 2013.09 491.575 2021.93 485.773C2031.05 479.972 2035.61 470.994 2035.61 458.84C2035.61 434.807 2017.79 422.79 1982.15 422.79H1903.84V494.475H1982.15Z" fill="black"/>
<path d="M1663.23 254.972C1688.93 254.972 1711.16 259.254 1729.95 267.818C1749.01 276.381 1763.65 288.536 1773.87 304.282C1784.09 320.028 1789.2 338.674 1789.2 360.221C1789.2 381.492 1784.09 400.138 1773.87 416.16C1763.65 431.906 1749.01 444.061 1729.95 452.624C1711.16 460.912 1688.93 465.055 1663.23 465.055H1604.81V545.028H1537.68V254.972H1663.23ZM1659.51 410.359C1679.67 410.359 1695 406.077 1705.5 397.514C1716 388.674 1721.25 376.243 1721.25 360.221C1721.25 343.923 1716 331.492 1705.5 322.928C1695 314.088 1679.67 309.668 1659.51 309.668H1604.81V410.359H1659.51Z" fill="black"/>
<path d="M1401.72 254.972H1468.85V545.028H1401.72V254.972Z" fill="black"/>
<path d="M1151.64 254.972H1218.77V490.331H1364.21V545.028H1151.64V254.972Z" fill="black"/>
<path d="M954.127 308.84V385.497H1088.38V439.365H954.127V545.028H887V254.972H1106.2V308.84H954.127Z" fill="black"/>
</svg>
