<?xml version="1.0" standalone="no"?>
<!DOCTYPE svg PUBLIC "-//W3C//DTD SVG 20010904//EN"
 "http://www.w3.org/TR/2001/REC-SVG-20010904/DTD/svg10.dtd">
<svg version="1.0" xmlns="http://www.w3.org/2000/svg"
 width="700.000000pt" height="700.000000pt" viewBox="0 0 700.000000 700.000000"
 preserveAspectRatio="xMidYMid meet">
<metadata>
Created by potrace 1.14, written by Peter Selinger 2001-2017
</metadata>
<g transform="translate(0.000000,700.000000) scale(0.100000,-0.100000)"
fill="#000000" stroke="none">
<path d="M1145 6380 c-252 -40 -443 -208 -512 -450 -16 -58 -18 -106 -18 -420
0 -343 1 -357 23 -430 60 -194 210 -348 402 -413 61 -20 87 -22 415 -25 399
-4 445 2 574 65 105 52 212 159 264 264 63 129 69 175 65 574 -3 328 -5 354
-25 415 -64 188 -211 335 -397 397 -80 26 -84 27 -411 29 -181 1 -352 -1 -380
-6z m685 -450 c22 -11 52 -39 67 -62 l28 -41 3 -288 c4 -325 0 -354 -57 -410
-56 -57 -85 -61 -410 -57 l-288 3 -41 28 c-79 52 -82 65 -82 406 0 187 4 310
11 328 14 37 57 82 94 99 23 10 102 13 333 14 284 0 305 -1 342 -20z"/>
<path d="M3245 6380 c-252 -40 -443 -208 -512 -450 -16 -58 -18 -106 -18 -420
0 -343 1 -357 23 -430 60 -194 210 -348 402 -413 61 -20 87 -22 415 -25 399
-4 445 2 574 65 105 52 212 159 264 264 63 129 69 175 65 574 -3 328 -5 354
-25 415 -64 188 -211 335 -397 397 -80 26 -84 27 -411 29 -181 1 -352 -1 -380
-6z m685 -450 c22 -11 52 -39 67 -62 l28 -41 3 -288 c4 -325 0 -354 -57 -410
-56 -57 -85 -61 -410 -57 l-288 3 -41 28 c-79 52 -82 65 -82 406 0 187 4 310
11 328 14 37 57 82 94 99 23 10 102 13 333 14 284 0 305 -1 342 -20z"/>
<path d="M5345 6380 c-252 -40 -443 -208 -512 -450 -16 -58 -18 -106 -18 -420
0 -343 1 -357 23 -430 60 -194 210 -348 402 -413 61 -20 87 -22 415 -25 399
-4 445 2 574 65 105 52 212 159 264 264 63 129 69 175 65 574 -3 328 -5 354
-25 415 -64 188 -211 335 -397 397 -80 26 -84 27 -411 29 -181 1 -352 -1 -380
-6z m685 -450 c22 -11 52 -39 67 -62 l28 -41 3 -288 c4 -325 0 -354 -57 -410
-56 -57 -85 -61 -410 -57 l-288 3 -41 28 c-79 52 -82 65 -82 406 0 187 4 310
11 328 14 37 57 82 94 99 23 10 102 13 333 14 284 0 305 -1 342 -20z"/>
<path d="M1145 4280 c-252 -40 -443 -208 -512 -450 -16 -58 -18 -106 -18 -420
0 -343 1 -357 23 -430 60 -194 210 -348 402 -413 61 -20 87 -22 415 -25 399
-4 445 2 574 65 105 52 212 159 264 264 63 129 69 175 65 574 -3 328 -5 354
-25 415 -64 188 -211 335 -397 397 -80 26 -84 27 -411 29 -181 1 -352 -1 -380
-6z m685 -450 c22 -11 52 -39 67 -62 l28 -41 3 -288 c4 -325 0 -354 -57 -410
-56 -57 -85 -61 -410 -57 l-288 3 -41 28 c-79 52 -82 65 -82 406 0 187 4 310
11 328 14 37 57 82 94 99 23 10 102 13 333 14 284 0 305 -1 342 -20z"/>
<path d="M3245 4280 c-252 -40 -443 -208 -512 -450 -16 -58 -18 -106 -18 -420
0 -343 1 -357 23 -430 60 -194 210 -348 402 -413 61 -20 87 -22 415 -25 399
-4 445 2 574 65 105 52 212 159 264 264 63 129 69 175 65 574 -3 328 -5 354
-25 415 -64 188 -211 335 -397 397 -80 26 -84 27 -411 29 -181 1 -352 -1 -380
-6z m685 -450 c22 -11 52 -39 67 -62 l28 -41 3 -288 c4 -325 0 -354 -57 -410
-56 -57 -85 -61 -410 -57 l-288 3 -41 28 c-79 52 -82 65 -82 406 0 187 4 310
11 328 14 37 57 82 94 99 23 10 102 13 333 14 284 0 305 -1 342 -20z"/>
<path d="M1145 2180 c-252 -40 -443 -208 -512 -450 -16 -58 -18 -106 -18 -420
0 -343 1 -357 23 -430 60 -194 210 -348 402 -413 61 -20 87 -22 415 -25 399
-4 445 2 574 65 105 52 212 159 264 264 63 129 69 175 65 574 -3 328 -5 354
-25 415 -64 188 -211 335 -397 397 -80 26 -84 27 -411 29 -181 1 -352 -1 -380
-6z m685 -450 c22 -11 52 -39 67 -62 l28 -41 3 -288 c4 -325 0 -354 -57 -410
-56 -57 -85 -61 -410 -57 l-288 3 -41 28 c-79 52 -82 65 -82 406 0 187 4 310
11 328 14 37 57 82 94 99 23 10 102 13 333 14 284 0 305 -1 342 -20z"/>
</g>
</svg>
